<svg xmlns="http://www.w3.org/2000/svg" width="17" height="17" viewBox="0 0 17 17" fill="none">
  <g clip-path="url(#clip0_277_298)">
    <path d="M13.0065 8.5313C12.6353 8.5313 12.3353 8.83208 12.3353 9.20255V14.573C12.3353 14.9428 12.0345 15.2442 11.664 15.2442H2.26584C1.89524 15.2442 1.59459 14.9428 1.59459 14.573V5.17478C1.59459 4.80492 1.89524 4.50352 2.26584 4.50352H7.63625C8.00747 4.50352 8.30751 4.20274 8.30751 3.83227C8.30751 3.46167 8.00747 3.16089 7.63625 3.16089H2.26584C1.15552 3.16089 0.251953 4.06446 0.251953 5.17478V14.573C0.251953 15.6833 1.15552 16.5868 2.26584 16.5868H11.664C12.7744 16.5868 13.6779 15.6833 13.6779 14.573V9.20255C13.6779 8.83134 13.3778 8.5313 13.0065 8.5313Z" fill="#4b3acf"/>
    <path d="M6.54767 7.91969C6.50072 7.96665 6.46913 8.02639 6.45573 8.0908L5.98114 10.4646C5.95902 10.5746 5.99393 10.6881 6.07309 10.768C6.13688 10.8317 6.2228 10.8659 6.31081 10.8659C6.3322 10.8659 6.35445 10.864 6.37657 10.8593L8.74963 10.3847C8.81539 10.3712 8.87513 10.3397 8.92147 10.2926L14.2328 4.98133L11.8597 2.6084L6.54767 7.91969Z" fill="#4b3acf"/>
    <path d="M6.54572 7.91969C6.49876 7.96665 6.46717 8.02639 6.45378 8.0908L5.97919 10.4646C5.95706 10.5746 5.99197 10.6881 6.07113 10.768C6.13493 10.8317 6.22085 10.8659 6.30886 10.8659C6.33024 10.8659 6.35249 10.864 6.37462 10.8593L8.74767 10.3847C8.81343 10.3712 8.87317 10.3397 8.91951 10.2926L14.2308 4.98133L11.8577 2.6084L6.54572 7.91969Z" fill="#4b3acf"/>
    <path d="M15.8724 0.966978C15.218 0.31244 14.1533 0.31244 13.4993 0.966978L12.5703 1.89599L14.9434 4.26905L15.8724 3.33991C16.1893 3.02377 16.3638 2.60216 16.3638 2.15375C16.3638 1.70535 16.1893 1.28374 15.8724 0.966978Z" fill="#4b3acf"/>
  </g>
  <defs>
    <clipPath id="clip0_277_298">
      <rect width="16.1111" height="16.1111" fill="white" transform="translate(0.251953 0.44458)"/>
    </clipPath>
  </defs>
</svg>