<svg xmlns="http://www.w3.org/2000/svg" width="20" height="20" viewBox="0 0 20 20" fill="none">
  <path fill-rule="evenodd" clip-rule="evenodd" d="M6.21432 3.89335C6.21432 3.03915 6.90679 2.34668 7.76099 2.34668H12.401C13.2552 2.34668 13.9477 3.03915 13.9477 3.89335V5.44001H15.4863C15.4911 5.43997 15.4959 5.43997 15.5007 5.44001H17.041C17.4681 5.44001 17.8143 5.78625 17.8143 6.21335C17.8143 6.64045 17.4681 6.98668 17.041 6.98668H16.2144L15.5437 16.3769C15.4858 17.1863 14.8124 17.8133 14.0009 17.8133H6.16106C5.34961 17.8133 4.67613 17.1863 4.61832 16.3769L3.94759 6.98668H3.12099C2.69389 6.98668 2.34766 6.64045 2.34766 6.21335C2.34766 5.78625 2.69389 5.44001 3.12099 5.44001H4.66127C4.66607 5.43997 4.67086 5.43997 4.67564 5.44001H6.21432V3.89335ZM7.76099 5.44001H12.401V3.89335H7.76099V5.44001ZM5.4982 6.98668L6.16106 16.2667H14.0009L14.6638 6.98668H5.4982ZM8.53432 8.53335C8.96142 8.53335 9.30766 8.87958 9.30766 9.30668V13.9467C9.30766 14.3738 8.96142 14.72 8.53432 14.72C8.10722 14.72 7.76099 14.3738 7.76099 13.9467V9.30668C7.76099 8.87958 8.10722 8.53335 8.53432 8.53335ZM11.6277 8.53335C12.0548 8.53335 12.401 8.87958 12.401 9.30668V13.9467C12.401 14.3738 12.0548 14.72 11.6277 14.72C11.2006 14.72 10.8543 14.3738 10.8543 13.9467V9.30668C10.8543 8.87958 11.2006 8.53335 11.6277 8.53335Z" fill="#fff"/>
</svg>